<svg width="32" height="32" viewBox="0 0 32 32" fill="none" xmlns="http://www.w3.org/2000/svg">
  <g id="09a9c26faea2a8cce6ed79e57b4dcda9">
    <rect id="79c3a56a9678f341a6519932fef3b5e5" width="32" height="32" fill="#E3FFA8"></rect>
    <path id="b4a78dec6a29fc760d565c16c6a91c35" fill-rule="evenodd" clip-rule="evenodd" d="M10.1671 19.0816C10.424 20.2787 10.9667 21.3697 11.7202 22.2798C13.0959 23.9414 15.1743 25 17.5 25C21.6421 25 25 21.6421 25 17.5C25 15.1743 23.9414 13.0959 22.2798 11.7202C22.1734 11.6321 22.0645 11.5468 21.9532 11.4646C21.1131 10.8437 20.1387 10.394 19.0816 10.1671C18.5717 10.0576 18.0426 10 17.5 10C13.3579 10 10 13.3579 10 17.5C10 18.0426 10.0576 18.5717 10.1671 19.0816ZM18.4155 9.24682C17.804 9.08578 17.162 9 16.5 9C12.3579 9 9 12.3579 9 16.5C9 17.162 9.08578 17.804 9.24682 18.4155C7.87059 17.2236 7 15.4635 7 13.5C7 9.91015 9.91015 7 13.5 7C15.4635 7 17.2236 7.87059 18.4155 9.24682Z" fill="#242424"></path>
  </g>
</svg>